<svg xmlns="http://www.w3.org/2000/svg" xmlns:xlink="http://www.w3.org/1999/xlink" width="2000" zoomAndPan="magnify" viewBox="0 0 1500 1499.999933" height="2000" preserveAspectRatio="xMidYMid meet" version="1.0"><defs><g/><clipPath id="03d70c9fb7"><rect x="0" width="1234" y="0" height="1373"/></clipPath><clipPath id="fdb7a8eba0"><path d="M 77 788 L 593 788 L 593 1218 L 77 1218 Z M 77 788 " clip-rule="nonzero"/></clipPath><clipPath id="106b942cfd"><path d="M 176.0625 788.300781 L 592.867188 1072.550781 L 493.890625 1217.679688 L 77.089844 933.429688 Z M 176.0625 788.300781 " clip-rule="nonzero"/></clipPath><clipPath id="7c6de491e9"><path d="M 0.0390625 0.160156 L 516 0.160156 L 516 429.761719 L 0.0390625 429.761719 Z M 0.0390625 0.160156 " clip-rule="nonzero"/></clipPath><clipPath id="b65ceeae70"><path d="M 99.0625 0.300781 L 515.867188 284.550781 L 416.890625 429.679688 L 0.0898438 145.429688 Z M 99.0625 0.300781 " clip-rule="nonzero"/></clipPath><clipPath id="1f0320404e"><rect x="0" width="516" y="0" height="430"/></clipPath><clipPath id="6b50bee47e"><path d="M 867 150 L 1423 150 L 1423 607 L 867 607 Z M 867 150 " clip-rule="nonzero"/></clipPath><clipPath id="10d08af2e0"><path d="M 966.179688 150 L 1422.910156 461.476562 L 1323.933594 606.609375 L 867.207031 295.132812 Z M 966.179688 150 " clip-rule="nonzero"/></clipPath><clipPath id="120adcca4b"><path d="M 0.121094 0 L 555.960938 0 L 555.960938 456.71875 L 0.121094 456.71875 Z M 0.121094 0 " clip-rule="nonzero"/></clipPath><clipPath id="c2ca085000"><path d="M 99.179688 0 L 555.910156 311.476562 L 456.933594 456.609375 L 0.207031 145.132812 Z M 99.179688 0 " clip-rule="nonzero"/></clipPath><clipPath id="ca8f37df0f"><rect x="0" width="556" y="0" height="457"/></clipPath></defs><rect x="-150" width="1800" fill="#ffffff" y="-149.999993" height="1799.99992" fill-opacity="1"/><rect x="-150" width="1800" fill="#000000" y="-149.999993" height="1799.99992" fill-opacity="1"/><g transform="matrix(1, 0, 0, 1, 146, 127)"><g clip-path="url(#03d70c9fb7)"><g fill="#ffffff" fill-opacity="1"><g transform="translate(0.530905, 1059.758113)"><g><path d="M 673.484375 -5.890625 L 557.890625 -5.890625 L 310.203125 -616.859375 L 306.671875 0 L 86.109375 0 L 86.109375 -973.078125 L 399.84375 -973.078125 L 616.859375 -411.640625 L 831.53125 -973.078125 L 1146.453125 -973.078125 L 1146.453125 0 L 925.890625 0 L 923.53125 -616.859375 Z M 673.484375 -5.890625 "/></g></g></g></g></g><g clip-path="url(#fdb7a8eba0)"><g clip-path="url(#106b942cfd)"><g transform="matrix(1, 0, 0, 1, 77, 788)"><g clip-path="url(#1f0320404e)"><g clip-path="url(#7c6de491e9)"><g clip-path="url(#b65ceeae70)"><path fill="#000000" d="M 99.0625 0.300781 L 515.746094 284.464844 L 416.769531 429.597656 L 0.0898438 145.429688 Z M 99.0625 0.300781 " fill-opacity="1" fill-rule="nonzero"/></g></g></g></g></g></g><g clip-path="url(#6b50bee47e)"><g clip-path="url(#10d08af2e0)"><g transform="matrix(1, 0, 0, 1, 867, 150)"><g clip-path="url(#ca8f37df0f)"><g clip-path="url(#120adcca4b)"><g clip-path="url(#c2ca085000)"><path fill="#000000" d="M 99.179688 0 L 556.113281 311.617188 L 457.136719 456.746094 L 0.207031 145.132812 Z M 99.179688 0 " fill-opacity="1" fill-rule="nonzero"/></g></g></g></g></g></g></svg>